<mxfile host="65bd71144e">
    <diagram id="-ucvT8-kgHedsvhfO-7C" name="Page-1">
        <mxGraphModel dx="700" dy="1504" grid="1" gridSize="10" guides="1" tooltips="1" connect="1" arrows="1" fold="1" page="1" pageScale="1" pageWidth="827" pageHeight="1169" math="0" shadow="0">
            <root>
                <mxCell id="0"/>
                <mxCell id="1" parent="0"/>
                <mxCell id="2" value="1+3(4*3)+3**3" style="text;html=1;resizable=0;autosize=1;align=center;verticalAlign=middle;points=[];fillColor=none;strokeColor=none;rounded=0;fontStyle=1" parent="1" vertex="1">
                    <mxGeometry x="280" y="120" width="90" height="20" as="geometry"/>
                </mxCell>
                <mxCell id="4" value="1+3(12)+3**3" style="text;html=1;resizable=0;autosize=1;align=center;verticalAlign=middle;points=[];fillColor=none;strokeColor=none;rounded=0;fontStyle=1" parent="1" vertex="1">
                    <mxGeometry x="280" y="150" width="90" height="20" as="geometry"/>
                </mxCell>
                <mxCell id="5" value="1+3(12)+27" style="text;html=1;resizable=0;autosize=1;align=center;verticalAlign=middle;points=[];fillColor=none;strokeColor=none;rounded=0;fontStyle=1" parent="1" vertex="1">
                    <mxGeometry x="285" y="180" width="80" height="20" as="geometry"/>
                </mxCell>
                <mxCell id="6" value="1+36+27" style="text;html=1;resizable=0;autosize=1;align=center;verticalAlign=middle;points=[];fillColor=none;strokeColor=none;rounded=0;fontStyle=1" parent="1" vertex="1">
                    <mxGeometry x="295" y="210" width="60" height="20" as="geometry"/>
                </mxCell>
                <mxCell id="7" value="37+27" style="text;html=1;resizable=0;autosize=1;align=center;verticalAlign=middle;points=[];fillColor=none;strokeColor=none;rounded=0;fontStyle=1" parent="1" vertex="1">
                    <mxGeometry x="300" y="240" width="50" height="20" as="geometry"/>
                </mxCell>
                <mxCell id="8" value="64" style="text;html=1;resizable=0;autosize=1;align=center;verticalAlign=middle;points=[];fillColor=none;strokeColor=none;rounded=0;fontStyle=1" parent="1" vertex="1">
                    <mxGeometry x="310" y="270" width="30" height="20" as="geometry"/>
                </mxCell>
                <mxCell id="9" value="" style="whiteSpace=wrap;html=1;" parent="1" vertex="1">
                    <mxGeometry x="413" y="120" width="120" height="20" as="geometry"/>
                </mxCell>
                <mxCell id="10" value="findParenthesis" style="text;html=1;resizable=0;autosize=1;align=center;verticalAlign=middle;points=[];fillColor=none;strokeColor=none;rounded=0;" parent="1" vertex="1">
                    <mxGeometry x="423" y="120" width="100" height="20" as="geometry"/>
                </mxCell>
                <mxCell id="11" value="" style="whiteSpace=wrap;html=1;" parent="1" vertex="1">
                    <mxGeometry x="413" y="150" width="120" height="20" as="geometry"/>
                </mxCell>
                <mxCell id="12" value="solve parenthesis" style="text;html=1;resizable=0;autosize=1;align=center;verticalAlign=middle;points=[];fillColor=none;strokeColor=none;rounded=0;" parent="1" vertex="1">
                    <mxGeometry x="418" y="150" width="110" height="20" as="geometry"/>
                </mxCell>
                <mxCell id="16" value="" style="whiteSpace=wrap;html=1;" parent="1" vertex="1">
                    <mxGeometry x="413" y="180" width="120" height="20" as="geometry"/>
                </mxCell>
                <mxCell id="17" value="solve exponent" style="text;html=1;resizable=0;autosize=1;align=center;verticalAlign=middle;points=[];fillColor=none;strokeColor=none;rounded=0;" parent="1" vertex="1">
                    <mxGeometry x="423" y="180" width="100" height="20" as="geometry"/>
                </mxCell>
                <mxCell id="18" value="" style="whiteSpace=wrap;html=1;" parent="1" vertex="1">
                    <mxGeometry x="413" y="210" width="120" height="20" as="geometry"/>
                </mxCell>
                <mxCell id="19" value="multiplication" style="text;html=1;resizable=0;autosize=1;align=center;verticalAlign=middle;points=[];fillColor=none;strokeColor=none;rounded=0;" parent="1" vertex="1">
                    <mxGeometry x="433" y="210" width="80" height="20" as="geometry"/>
                </mxCell>
                <mxCell id="20" value="" style="whiteSpace=wrap;html=1;" parent="1" vertex="1">
                    <mxGeometry x="413" y="240" width="120" height="20" as="geometry"/>
                </mxCell>
                <mxCell id="21" value="addition/subtraction" style="text;html=1;resizable=0;autosize=1;align=center;verticalAlign=middle;points=[];fillColor=none;strokeColor=none;rounded=0;" parent="1" vertex="1">
                    <mxGeometry x="413" y="240" width="120" height="20" as="geometry"/>
                </mxCell>
                <mxCell id="23" value="" style="whiteSpace=wrap;html=1;" parent="1" vertex="1">
                    <mxGeometry x="413" y="270" width="120" height="20" as="geometry"/>
                </mxCell>
                <mxCell id="24" value="final value" style="text;html=1;resizable=0;autosize=1;align=center;verticalAlign=middle;points=[];fillColor=none;strokeColor=none;rounded=0;" parent="1" vertex="1">
                    <mxGeometry x="438" y="270" width="70" height="20" as="geometry"/>
                </mxCell>
                <mxCell id="27" value="" style="edgeStyle=none;html=1;" edge="1" parent="1" source="25" target="26">
                    <mxGeometry relative="1" as="geometry"/>
                </mxCell>
                <mxCell id="25" value="Convert string to an array" style="whiteSpace=wrap;html=1;" vertex="1" parent="1">
                    <mxGeometry x="660" y="110" width="120" height="60" as="geometry"/>
                </mxCell>
                <mxCell id="29" value="" style="edgeStyle=none;html=1;" edge="1" parent="1" source="26" target="28">
                    <mxGeometry relative="1" as="geometry"/>
                </mxCell>
                <mxCell id="31" value="" style="edgeStyle=none;html=1;" edge="1" parent="1" source="26" target="30">
                    <mxGeometry relative="1" as="geometry"/>
                </mxCell>
                <mxCell id="26" value="Check for parenthesis" style="whiteSpace=wrap;html=1;" vertex="1" parent="1">
                    <mxGeometry x="655" y="220" width="130" height="60" as="geometry"/>
                </mxCell>
                <mxCell id="33" value="" style="edgeStyle=none;html=1;" edge="1" parent="1" source="28" target="32">
                    <mxGeometry relative="1" as="geometry"/>
                </mxCell>
                <mxCell id="28" value="If true copy contents into a new array and evaluate those" style="whiteSpace=wrap;html=1;" vertex="1" parent="1">
                    <mxGeometry x="560" y="330" width="130" height="60" as="geometry"/>
                </mxCell>
                <mxCell id="34" style="edgeStyle=none;html=1;entryX=0.731;entryY=-0.001;entryDx=0;entryDy=0;exitX=0.318;exitY=1.033;exitDx=0;exitDy=0;exitPerimeter=0;entryPerimeter=0;" edge="1" parent="1" source="30" target="32">
                    <mxGeometry relative="1" as="geometry">
                        <mxPoint x="790" y="400" as="sourcePoint"/>
                    </mxGeometry>
                </mxCell>
                <mxCell id="30" value="if false continue with current array..." style="whiteSpace=wrap;html=1;" vertex="1" parent="1">
                    <mxGeometry x="750" y="330" width="130" height="60" as="geometry"/>
                </mxCell>
                <mxCell id="32" value="Check for exponents" style="whiteSpace=wrap;html=1;" vertex="1" parent="1">
                    <mxGeometry x="655" y="440" width="130" height="60" as="geometry"/>
                </mxCell>
                <mxCell id="37" value="" style="edgeStyle=none;html=1;" edge="1" parent="1" source="35" target="36">
                    <mxGeometry relative="1" as="geometry"/>
                </mxCell>
                <mxCell id="41" value="" style="edgeStyle=none;html=1;entryX=0.5;entryY=0;entryDx=0;entryDy=0;" edge="1" parent="1" source="40" target="35">
                    <mxGeometry relative="1" as="geometry">
                        <mxPoint x="1300" y="30" as="sourcePoint"/>
                    </mxGeometry>
                </mxCell>
                <mxCell id="35" value="Build new empty array" style="whiteSpace=wrap;html=1;" vertex="1" parent="1">
                    <mxGeometry x="1090" y="110" width="120" height="60" as="geometry"/>
                </mxCell>
                <mxCell id="39" value="" style="edgeStyle=none;html=1;" edge="1" parent="1" source="36" target="38">
                    <mxGeometry relative="1" as="geometry"/>
                </mxCell>
                <mxCell id="36" value="Add numbers to empty array" style="whiteSpace=wrap;html=1;" vertex="1" parent="1">
                    <mxGeometry x="1080" y="250" width="140" height="60" as="geometry"/>
                </mxCell>
                <mxCell id="38" value="loop through original array to seperate the operators and add them to the numbers array" style="whiteSpace=wrap;html=1;" vertex="1" parent="1">
                    <mxGeometry x="1040" y="390" width="220" height="80" as="geometry"/>
                </mxCell>
                <mxCell id="40" value="Start with original array" style="whiteSpace=wrap;html=1;" vertex="1" parent="1">
                    <mxGeometry x="1090" y="-30" width="120" height="60" as="geometry"/>
                </mxCell>
            </root>
        </mxGraphModel>
    </diagram>
</mxfile>